<svg height="512" viewBox="0 0 56 58" width="512" xmlns="http://www.w3.org/2000/svg"><g id="Page-1" fill="none" fill-rule="evenodd"><g id="028---Height-Restrictions" fill="rgb(0,0,0)" fill-rule="nonzero"><path id="Shape" d="m21 8c0-3.86599325 3.1340068-7 7-7s7 3.13400675 7 7c0 3.8659932-3.1340068 7-7 7-3.8641657-.0044086-6.9955914-3.1358343-7-7zm15 9c3.8641657.0044086 6.9955914 3.1358343 7 7v8c0 1.6568542-1.3431458 3-3 3s-3-1.3431458-3-3v-8c0-.5522847-.4477153-1-1-1s-1 .4477153-1 1v30c0 1.6568542-1.3431458 3-3 3s-3-1.3431458-3-3v-13c0-.5522847-.4477153-1-1-1s-1 .4477153-1 1v13c0 1.0717968-.5717967 2.0621779-1.5 2.5980763-.9282032.5358984-2.0717968.5358984-3 0-.9282033-.5358984-1.5-1.5262795-1.5-2.5980763v-30c0-.5522847-.4477153-1-1-1s-1 .4477153-1 1v8c0 1.6568542-1.3431458 3-3 3s-3-1.3431458-3-3v-8c.0044086-3.8641657 3.1358343-6.9955914 7-7z"/><path id="Shape" d="m7 2v54c0 .5522847-.44771525 1-1 1h-5c-.55228475 0-1-.4477153-1-1v-2h3c.55228475 0 1-.4477153 1-1s-.44771525-1-1-1h-3v-2h2c.55228475 0 1-.4477153 1-1s-.44771525-1-1-1h-2v-2h3c.55228475 0 1-.4477153 1-1s-.44771525-1-1-1h-3v-2h2c.55228475 0 1-.4477153 1-1s-.44771525-1-1-1h-2v-2h3c.55228475 0 1-.4477153 1-1s-.44771525-1-1-1h-3v-2h2c.55228475 0 1-.4477153 1-1s-.44771525-1-1-1h-2v-2h3c.55228475 0 1-.4477153 1-1s-.44771525-1-1-1h-3v-2h2c.55228475 0 1-.4477153 1-1s-.44771525-1-1-1h-2v-2h3c.55228475 0 1-.4477153 1-1s-.44771525-1-1-1h-3v-2h2c.55228475 0 1-.4477153 1-1s-.44771525-1-1-1h-2v-2h3c.55228475 0 1-.4477153 1-1s-.44771525-1-1-1h-3v-2h2c.55228475 0 1-.44771525 1-1s-.44771525-1-1-1h-2v-2h3c.55228475 0 1-.44771525 1-1s-.44771525-1-1-1h-3v-2c0-.55228475.44771525-1 1-1h5c.55228475 0 1 .44771525 1 1z"/><path id="Shape" d="m54.83 51h-1.83v-44h1.83c.390353.00002568.7450391-.22708974.9083471-.58164011.1633081-.35455036.1053824-.77171728-.1483471-1.06835989l-3.83-4.46c-.1899882-.22216639-.4676758-.35007693-.76-.35007693s-.5700118.12791054-.76.35007693l-3.83 4.46c-.2537295.29664261-.3116552.71380953-.1483471 1.06835989.163308.35455037.5179941.58166579.9083471.58164011h1.83v44h-1.83c-.390353-.0000257-.7450391.2270897-.9083471.5816401-.1633081.3545504-.1053824.7717173.1483471 1.0683599l3.83 4.46c.1899882.2221664.4676758.3500769.76.3500769s.5700118-.1279105.76-.3500769l3.83-4.46c.2537295-.2966426.3116552-.7138095.1483471-1.0683599-.163308-.3545504-.5179941-.5816658-.9083471-.5816401z"/></g></g></svg>