<svg height="512" viewBox="0 0 128 128" width="512" xmlns="http://www.w3.org/2000/svg"><g><path d="m6.306 111.542 9.438-56.848a12.806 12.806 0 0 1 12.632-10.708h71.248a12.806 12.806 0 0 1 12.632 10.708l9.438 56.848z" fill="#f45858"/><path d="m14.002 111.542h99.996v10.151h-99.996z" fill="#6d7a84"/><path d="m6.306 6.306v4.725a18.135 18.135 0 0 0 18.135 18.135h79.118a18.135 18.135 0 0 0 18.135-18.135v-4.725z" fill="#f45858"/><path d="m55.745 29.166h16.509v14.82h-16.509z" fill="#f2da30"/><circle cx="64" cy="77.764" fill="#dfeef4" r="23.935"/><g fill="#6d7a84"><path d="m65.75 53.9v4.68a1.75 1.75 0 0 1 -3.5 0v-4.68c.58-.05 1.16-.07 1.75-.07s1.17.02 1.75.07z"/><path d="m65.75 96.95v4.68c-.58.05-1.16.07-1.75.07s-1.17-.02-1.75-.07v-4.68a1.75 1.75 0 1 1 3.5 0z"/><path d="m87.94 77.76c0 .59-.02 1.17-.07 1.75h-4.69a1.75 1.75 0 0 1 0-3.5h4.69c.05.58.07 1.16.07 1.75z"/><path d="m46.57 77.76a1.746 1.746 0 0 1 -1.75 1.75h-4.69c-.05-.58-.07-1.16-.07-1.75s.02-1.17.07-1.75h4.69a1.752 1.752 0 0 1 1.75 1.75z"/><path d="m75.655 66.109a1.748 1.748 0 0 0 -2.474 0l-6.893 6.891a5.252 5.252 0 0 0 -2.288-.538 5.3 5.3 0 1 0 5.3 5.3 5.233 5.233 0 0 0 -.54-2.287l6.893-6.894a1.748 1.748 0 0 0 .002-2.472zm-11.655 13.457a1.8 1.8 0 1 1 1.8-1.8 1.8 1.8 0 0 1 -1.8 1.8z"/></g><path d="m40.064 15.512h-18.2a1.75 1.75 0 1 1 0-3.5h18.2a1.75 1.75 0 0 1 0 3.5z" fill="#dd4e4e"/><path d="m52.894 15.512h-5.354a1.75 1.75 0 0 1 0-3.5h5.354a1.75 1.75 0 1 1 0 3.5z" fill="#dd4e4e"/></g></svg>