<svg id="Layer_1" enable-background="new 0 0 512 512" height="512" viewBox="0 0 512 512" width="512" xmlns="http://www.w3.org/2000/svg"><g><path d="m226 59v-28c0-11.598 9.402-21 21-21h78c11.598 0 21 9.402 21 21v28c0 11.598-9.402 21-21 21h-78c-11.598 0-21-9.402-21-21z" fill="#a0c8ff"/><path d="m216 350.355 20-70h120l-20 70z" fill="#b8ecbc"/><path d="m81 255.355h70v120h-70z" fill="#ff7b79" transform="matrix(0 1 -1 0 431.355 199.355)"/><path d="m286 230.355-90.178-50.177 90.178-50.178 90.178 50.178z" fill="#ffda8f"/><path d="m336 400.355h-100l-30 35 30 35h100l30-35z" fill="#a0c8ff"/><g><path d="m463.07 37.93c-1.86-1.86-4.44-2.93-7.07-2.93h-100v-4c0-8.28-3.23-16.07-9.08-21.92-5.85-5.851-13.64-9.08-21.92-9.08h-78c-8.28 0-16.07 3.229-21.92 9.08-5.85 5.85-9.08 13.64-9.08 21.92v28c0 8.28 3.23 16.069 9.08 21.92 5.85 5.85 13.64 9.08 21.92 9.08h29v34.12l-82.773 46.058h-77.227c-5.523 0-10 4.478-10 10v90.182h-50c-2.63 0-5.21 1.061-7.07 2.921-1.86 1.869-2.93 4.439-2.93 7.079v69.99c0 2.641 1.07 5.21 2.93 7.08 1.86 1.86 4.44 2.92 7.07 2.92h50v75.006c0 5.522 4.477 10 10 10h85.406l27.003 31.504c1.9 2.221 4.67 3.49 7.59 3.49h40v21.65c0 5.51 4.49 10 10 10s10-4.49 10-10v-21.65h40c2.92 0 5.69-1.27 7.59-3.49l30-35c1.55-1.8 2.4-4.109 2.4-6.5 0-2.39-.85-4.71-2.4-6.51l-30-35c-1.9-2.22-4.67-3.5-7.59-3.5h-40v-30h40c2.19 0 4.28-.689 6.02-2.01 1.75-1.32 2.99-3.13 3.59-5.24l20.01-70c.85-3 .24-6.28-1.64-8.77s-4.86-3.971-7.98-3.971h-60v-34.129l82.776-46.051h77.225c2.63 0 5.21-1.07 7.07-2.93s2.93-4.44 2.93-7.07v-20.179c0-5.51-4.49-10-10-10s-10 4.49-10 10v10.18h-67.224l-82.776-46.06v-34.12h29c8.28 0 16.07-3.23 21.92-9.08 5.85-5.851 9.08-13.64 9.08-21.92v-4h90v15c0 5.51 4.49 10 10 10s10-4.49 10-10v-25c0-2.63-1.07-5.21-2.93-7.07zm-397.07 252.42h100v50h-100zm60 70h50c2.63 0 5.21-1.06 7.07-2.92s2.93-4.439 2.93-7.08v-69.99c0-2.64-1.07-5.21-2.93-7.079-1.86-1.86-4.44-2.921-7.07-2.921h-50v-80.182h67.221l82.779 46.052v34.129h-40c-2.19 0-4.28.69-6.02 2.011-1.75 1.319-2.99 3.13-3.59 5.239l-20 70c-.86 3-.25 6.28 1.63 8.771 1.87 2.49 4.86 3.97 7.98 3.97h60v30h-40c-2.92 0-5.69 1.28-7.59 3.5l-27.005 31.506h-75.405zm205.4 50 21.43 25.01-21.43 25h-90.8l-21.43-25 21.43-25.01zm11.34-120-14.28 50h-99.2l14.28-50zm12.87-110.17-69.61 38.73-69.61-38.73 69.61-38.74zm-19.61-121.18c-.01 6.05-4.95 10.99-11 11h-78c-6.05-.01-10.99-4.95-11-11v-28c.01-6.05 4.95-10.99 11-11h78c6.05.01 10.99 4.95 11 11z"/><circle cx="456" cy="115" r="10"/></g></g></svg>