<svg height="512" viewBox="0 0 64 64" width="512" xmlns="http://www.w3.org/2000/svg"><g id="Electric_Plug" data-name="Electric Plug"><path d="m61 17v8a10 10 0 0 1 -10 10h-6a10 10 0 0 1 -10-10v-8a2.006 2.006 0 0 1 2-2h22a2.006 2.006 0 0 1 2 2z" fill="#ffdaaa"/><path d="m61 17v8a10 10 0 0 1 -10 10h-6a9.984 9.984 0 0 1 -8.78-5.22 9.9 9.9 0 0 0 4.78 1.22h6a10 10 0 0 0 10-10v-6h2a2.006 2.006 0 0 1 2 2z" fill="#ffc477"/><g fill="#46f8ff"><path d="m57 15v3h-6v-12a3 3 0 0 1 6 0z"/><path d="m51 35v3a3 3 0 0 1 -6 0v-4a3 3 0 0 1 6 0z"/><path d="m45 15v3h-6v-12a3 3 0 0 1 6 0z"/></g><rect fill="#57a4ff" height="30" rx="2" width="24" x="3" y="3"/><path d="m27 5v26a2.006 2.006 0 0 1 -2 2h-20a2.006 2.006 0 0 1 -2-2v-2h18a2.006 2.006 0 0 0 2-2v-24h2a2.006 2.006 0 0 1 2 2z" fill="#2488ff"/><path d="m21 16-6 12v-8h-6l6-12v8z" fill="#ffde55"/><path d="m39 53h7a3.009 3.009 0 0 0 3-3v-8.14a4 4 0 0 0 3-3.86v-2.05a11.011 11.011 0 0 0 10-10.95v-8a3.009 3.009 0 0 0 -3-3h-1v-8a4 4 0 0 0 -8 0v8h-4v-8a4 4 0 0 0 -8 0v8h-1a3.009 3.009 0 0 0 -3 3v8a11.011 11.011 0 0 0 10 10.95v2.05a4 4 0 0 0 3 3.86v8.14a1 1 0 0 1 -1 1h-7a2.995 2.995 0 0 0 -2.9 3.74 3.053 3.053 0 0 0 3.01 2.26h19.89a1 1 0 0 1 1 1v1a1 1 0 0 1 -1 1h-36a7.008 7.008 0 0 1 -7-7v-19h9a3.009 3.009 0 0 0 3-3v-26a3.009 3.009 0 0 0 -3-3h-20a3.009 3.009 0 0 0 -3 3v26a3.009 3.009 0 0 0 3 3h9v19a9.014 9.014 0 0 0 9 9h36a3.009 3.009 0 0 0 3-3v-1a3.009 3.009 0 0 0 -3-3h-19.89a1.1 1.1 0 0 1 -1.08-.75.962.962 0 0 1 .28-.96.928.928 0 0 1 .69-.29zm13-47a2 2 0 0 1 4 0v11h-4zm-12 0a2 2 0 0 1 4 0v11h-4zm4.01 27.94a9 9 0 0 1 -8.01-8.94v-8a1 1 0 0 1 1-1h1v2a1 1 0 0 0 1 1h6a1 1 0 0 0 1-1v-2h4v2a1 1 0 0 0 1 1h6a1 1 0 0 0 1-1v-2h1a1 1 0 0 1 1 1v8a9 9 0 0 1 -8.01 8.94 3.99 3.99 0 0 0 -7.98 0zm1.99 4.06v-4a2 2 0 0 1 4 0v4a2 2 0 0 1 -4 0zm-41-6a1 1 0 0 1 -1-1v-26a1 1 0 0 1 1-1h20a1 1 0 0 1 1 1v26a1 1 0 0 1 -1 1z"/><path d="m47 35h2v2h-2z"/><path d="m21.85 15.47a1 1 0 0 0 -.85-.47h-5v-7a1 1 0 0 0 -.77-.97.984.984 0 0 0 -1.12.52l-6 12a1 1 0 0 0 .89 1.45h5v7a1 1 0 0 0 .77.97.908.908 0 0 0 .23.03 1 1 0 0 0 .89-.55l6-12a1.007 1.007 0 0 0 -.04-.98zm-5.85 8.29v-3.76a1 1 0 0 0 -1-1h-4.38l3.38-6.76v3.76a1 1 0 0 0 1 1h4.38z"/></g></svg>