<svg id="Capa_1" enable-background="new 0 0 512 512" height="512" viewBox="0 0 512 512" width="512" xmlns="http://www.w3.org/2000/svg"><g><g><g><g><g><g><g><circle cx="256" cy="256" fill="#f1cc30" r="256"/></g></g></g></g></g></g><path d="m265.383 511.831c137.038-4.937 246.617-117.587 246.617-255.831 0-10.59-.643-21.029-1.892-31.282l-125.796-125.796-15.001 107.515 33.187 33.187-30.306 30.306-182.694-182.693-66.61 79.329 43.043 43.044-41.459 47.147 25.498 25.498-9.091 8.186 34.985 34.985-99.443-2.556 118.07 119.173z" fill="#e9a226"/><g><circle cx="369.311" cy="272.154" fill="#d24611" r="51.801"/></g><g><path d="m317.51 442.041h-123.02l22.677-119.891h77.666z" fill="#4d56b2"/></g><g><path d="m294.833 322.15h-38.833v119.891h61.51z" fill="#36498b"/></g><g><path d="m241 147.965h30v358h-30z" fill="#7982ed" transform="matrix(.106 -.994 .994 .106 -96.306 546.789)"/></g><g><path d="m435.58 331.062-179.58-19.182v30.17l176.395 18.842z" fill="#636ae5"/></g><g><circle cx="155.878" cy="126.629" fill="#e06a24" r="51.801"/></g><path d="m208.498 235.543-52.619-52.618-52.62 52.617 21.213 21.214 16.406-16.405v50.089h30v-50.09l16.407 16.407z" fill="#fff"/><path d="m400.718 132.605-16.406 16.406v-50.089h-30v50.09l-16.408-16.407-21.213 21.213 52.62 52.619 52.62-52.618z" fill="#e9ecf4"/></g></svg>