<svg id="Capa_1" enable-background="new 0 0 512 512" height="512" viewBox="0 0 512 512" width="512" xmlns="http://www.w3.org/2000/svg"><g><g><g><path d="m110.846 405.19h290.306v35.189h-290.306z" fill="#9e5528"/></g><g><path d="m401.151 405.187v35.187h-32.888l-11.402-35.187z" fill="#904d24"/></g><g><path d="m77.268 503.469c-10.942-3.546-16.937-15.291-13.391-26.233l54.313-167.573c3.546-10.942 15.291-16.937 26.233-13.391 10.942 3.546 16.937 15.291 13.391 26.233l-54.313 167.573c-3.546 10.943-15.291 16.938-26.233 13.391z" fill="#c86d36"/></g><g><path d="m158.837 316.087c0 2.131-.33 4.291-1.02 6.421l-54.312 167.567c-3.551 10.942-15.293 16.944-26.236 13.393-3.541-1.15-6.561-3.151-8.912-5.711 7.122-1.451 13.273-6.592 15.663-13.993l54.312-167.567c.69-2.141 1.02-4.301 1.02-6.432 0-5.251-2-10.282-5.501-14.093 3.401-.7 7.032-.55 10.572.6 8.813 2.861 14.414 11.033 14.414 19.815z" fill="#ac5e2e"/></g><g><path d="m434.73 503.469c10.942-3.546 16.937-15.291 13.391-26.233l-54.313-167.573c-3.546-10.942-15.291-16.937-26.233-13.391-10.942 3.546-16.937 15.291-13.391 26.233l54.313 167.573c3.546 10.943 15.291 16.938 26.233 13.391z" fill="#c86d36"/></g><g><path d="m434.728 503.468c-6.041 1.96-12.313 1.01-17.334-2.081 7.992-4.921 11.903-14.833 8.882-24.155l-54.312-167.567c-1.59-4.901-4.821-8.812-8.892-11.313 1.38-.85 2.891-1.56 4.501-2.081 10.942-3.551 22.685 2.451 26.236 13.393l54.312 167.567c3.551 10.944-2.451 22.696-13.393 26.237z" fill="#ac5e2e"/></g></g><g><path d="m485.308 347.892h-458.616c-10.534 0-19.074-8.54-19.074-19.074v-302.242c0-10.534 8.54-19.074 19.074-19.074h458.616c10.534 0 19.074 8.54 19.074 19.074v302.242c0 10.534-8.54 19.074-19.074 19.074z" fill="#d77f4a"/></g><g><path d="m504.384 26.572v302.246c0 10.532-8.542 19.074-19.074 19.074h-20.004c10.532 0 19.074-8.542 19.074-19.074v-302.246c0-10.532-8.542-19.074-19.074-19.074h20.004c10.533 0 19.074 8.542 19.074 19.074z" fill="#c86d36"/></g><g><path d="m466.936 316.144h-421.873c-3.781 0-6.846-3.065-6.846-6.846v-263.202c0-3.781 3.065-6.846 6.846-6.846h421.873c3.781 0 6.846 3.065 6.846 6.846v263.202c.001 3.781-3.064 6.846-6.846 6.846z" fill="#91deb6"/></g><g><path d="m473.788 46.097v263.198c0 3.781-3.071 6.852-6.851 6.852h-20.004c3.781 0 6.851-3.071 6.851-6.852v-263.198c0-3.781-3.071-6.852-6.851-6.852h20.004c3.78 0 6.851 3.071 6.851 6.852z" fill="#6ed5a1"/></g><g><path d="m485.307 0h-458.615c-14.654 0-26.576 11.922-26.576 26.576v302.242c0 14.653 11.922 26.575 26.576 26.575h68.79l-38.741 119.53c-2.333 7.198-1.724 14.873 1.717 21.613s9.299 11.736 16.497 14.069c2.875.932 5.827 1.394 8.765 1.394 4.417 0 8.802-1.045 12.849-3.111 6.739-3.44 11.736-9.299 14.069-16.497l14.427-44.512h261.869l2.878 8.881c1.278 3.941 5.509 6.101 9.449 4.823 3.941-1.278 6.101-5.508 4.823-9.449l-31.355-96.742h28.014l40.241 124.156c1.098 3.385.811 6.996-.807 10.166-1.619 3.17-4.374 5.52-7.76 6.618-6.99 2.265-14.519-1.578-16.784-8.565l-.733-2.262c-1.277-3.942-5.502-6.1-9.448-4.825-3.941 1.277-6.101 5.507-4.824 9.448l.733 2.263c3.88 11.968 15.017 19.596 26.968 19.596 2.887 0 5.823-.445 8.715-1.383 7.198-2.333 13.057-7.329 16.497-14.069s4.05-14.415 1.717-21.613l-38.741-119.53h68.792c14.655 0 26.576-11.922 26.576-26.575v-302.241c-.001-14.654-11.923-26.576-26.578-26.576zm-388.942 487.766c-1.097 3.385-3.448 6.142-6.618 7.76s-6.781 1.905-10.166.807c-3.386-1.097-6.141-3.448-7.76-6.617-1.619-3.17-1.905-6.78-.807-10.166l40.241-124.156h28.014zm33.562-54.889 6.542-20.185h239.059l6.542 20.185zm11.405-35.188 13.709-42.295h201.916l13.708 42.295zm355.548-68.871c0 6.381-5.192 11.572-11.573 11.572h-458.615c-6.381 0-11.572-5.192-11.572-11.572v-302.242c0-6.381 5.192-11.572 11.572-11.572h458.615c6.381 0 11.573 5.191 11.573 11.572z"/><path d="m466.936 31.748h-286.405c-4.143 0-7.502 3.359-7.502 7.502s3.359 7.502 7.502 7.502h285.75v261.891h-420.562v-261.892h99.809c4.143 0 7.502-3.359 7.502-7.502s-3.359-7.502-7.502-7.502h-100.465c-7.911 0-14.348 6.437-14.348 14.348v263.202c0 7.911 6.437 14.348 14.348 14.348h421.873c7.912 0 14.348-6.437 14.348-14.348v-263.201c0-7.912-6.436-14.348-14.348-14.348z"/><path d="m121.216 136.301c4.143 0 7.502-3.358 7.502-7.501s-3.359-7.502-7.502-7.502h-40.819c-4.143 0-7.502 3.359-7.502 7.502v96.874c0 4.143 3.359 7.502 7.502 7.502h40.819c4.143 0 7.502-3.359 7.502-7.502s-3.359-7.502-7.502-7.502h-33.317v-33.434h30.307c4.143 0 7.502-3.359 7.502-7.502s-3.359-7.502-7.502-7.502h-30.307v-33.434h33.317z"/><path d="m361.373 173.292c4.59 0 9.016 1.351 12.799 3.906 3.433 2.319 8.097 1.416 10.415-2.017s1.416-8.096-2.017-10.416c-6.273-4.238-13.603-6.478-21.197-6.478-20.9 0-37.904 17.003-37.904 37.903s17.004 37.903 37.904 37.903c8.35 0 15.845-2.744 21.674-7.935 1.141-1.015 2.226-2.136 3.227-3.328 2.662-3.175 2.247-7.906-.928-10.568s-7.907-2.247-10.569.927c-.533.637-1.109 1.23-1.708 1.764-3.082 2.745-7.017 4.137-11.696 4.137-12.628 0-22.901-10.273-22.901-22.9 0-12.625 10.273-22.898 22.901-22.898z"/><path d="m292.668 195.037v31.1c0 4.143 3.358 7.502 7.502 7.502s7.502-3.359 7.502-7.502v-30.934c.609-14.011-1.79-23.346-7.546-29.366-4.498-4.706-10.882-7.092-18.976-7.092-8.321 0-15.208 2.929-20.101 8.129-4.336-5.612-10.713-8.443-19.11-8.443-5.53 0-10.523 1.519-14.764 4.269-.96-3.037-3.799-5.238-7.153-5.238-4.143 0-7.502 3.358-7.502 7.501v61.175c0 4.143 3.359 7.502 7.502 7.502s7.502-3.359 7.502-7.502v-31.528c0-.036.005-.07.005-.106 0-12.799 5.656-21.069 14.409-21.069 4.388 0 10.397 0 10.932 18.126.016.569.024 1.157.029 1.75l-.011 32.826c0 4.143 3.359 7.502 7.502 7.502s7.502-3.359 7.502-7.502l.017-35.756c.001-7.587 2.299-16.632 13.24-16.632 5.784 0 7.551 1.849 8.132 2.456 1.841 1.927 3.926 6.699 3.394 18.494-.004.113-.007.225-.007.338z"/><path d="m184.117 174.697h-29.079c-4.143 0-7.502 3.359-7.502 7.502s3.359 7.501 7.502 7.501h29.079c4.143 0 7.502-3.358 7.502-7.501s-3.359-7.502-7.502-7.502z"/><path d="m184.117 201.4h-29.079c-4.143 0-7.502 3.359-7.502 7.502s3.359 7.501 7.502 7.501h29.079c4.143 0 7.502-3.358 7.502-7.501s-3.359-7.502-7.502-7.502z"/><path d="m436.545 144.28c.774-3.765.584-7.649-1.147-11.482-3.125-6.919-10.19-11.5-17.784-11.5-9.298 0-17.346 6.615-19.136 15.729-.799 4.065 1.85 8.009 5.915 8.807 4.068.796 8.009-1.85 8.807-5.915.412-2.097 2.268-3.619 4.414-3.619 2.358 0 4.298 1.824 4.483 4.135l-.102.799c-.394 1.475-1.367 3.861-3.745 7.258-7.403 10.576-11.817 16.357-14.19 19.463-2.987 3.911-4.961 6.496-3.724 10.518.731 2.378 2.597 4.275 4.997 5.076.99.33 1.738.578 11.097.578 3.625 0 8.542-.037 15.264-.122 4.143-.052 7.46-3.453 7.407-7.595-.051-4.111-3.399-7.407-7.499-7.407-.032 0-.064 0-.096 0-3.16.04-6.462.07-9.547.089 2.285-3.113 5.115-7.044 8.582-11.997 2.729-3.895 5.07-8.267 6.004-12.815z"/></g></g></svg>